<?xml version="1.0" encoding="UTF-8"?> <svg xmlns="http://www.w3.org/2000/svg" id="logo" width="380" height="93" viewBox="0 0 380 93"><defs><style> .cls-1 { fill: #004b1a; } .cls-2 { fill: #c4ff88; } </style></defs><path id="Bitehub" class="cls-1" d="M377.091,64.224a16.032,16.032,0,0,1-6.1,6.648,16.961,16.961,0,0,1-8.862,2.318,15.238,15.238,0,0,1-9.236-2.761,14.029,14.029,0,0,1-5.215-7.261v9.545h-6.2V22.258h6.2V44.827a14.03,14.03,0,0,1,5.215-7.261,15.238,15.238,0,0,1,9.236-2.761,16.971,16.971,0,0,1,8.862,2.318,16,16,0,0,1,6.1,6.682,22.329,22.329,0,0,1,2.215,10.227A22.112,22.112,0,0,1,377.091,64.224Zm-7.5-20.25a12.1,12.1,0,0,0-9.236-3.648A12.98,12.98,0,0,0,353.812,42a11.534,11.534,0,0,0-4.567,4.807,15.4,15.4,0,0,0-1.636,7.227,15.193,15.193,0,0,0,1.636,7.193,11.789,11.789,0,0,0,4.567,4.807,12.771,12.771,0,0,0,6.544,1.7,12.1,12.1,0,0,0,9.236-3.648q3.442-3.647,3.443-10.057T369.592,43.974ZM325.32,63.918a12.592,12.592,0,0,1-5.079,6.989,14.985,14.985,0,0,1-8.486,2.421,13.886,13.886,0,0,1-10.5-4.193q-4.023-4.193-4.022-12.034V35.281h6.2v21.2q0,5.591,2.863,8.625a10.172,10.172,0,0,0,7.771,3.034,10.62,10.62,0,0,0,8.18-3.307q3.068-3.306,3.068-9.648V35.281h6.2V72.713h-6.2v-8.8ZM282.512,51.508q0-5.59-2.863-8.591a10.234,10.234,0,0,0-7.771-3,10.625,10.625,0,0,0-8.18,3.307q-3.066,3.308-3.067,9.648V72.713h-6.2V22.258h6.2V44.145a12.753,12.753,0,0,1,5.078-7.023,14.72,14.72,0,0,1,8.419-2.455,13.974,13.974,0,0,1,10.566,4.193q4.02,4.193,4.021,12.1v21.75h-6.2v-21.2Zm-61.825,4.3q0.2,4.3,2.181,6.17a7.031,7.031,0,0,0,5.044,1.875,6.894,6.894,0,0,0,4.295-1.3,6.054,6.054,0,0,0,2.249-3.341h12.338a16.128,16.128,0,0,1-3.272,7.193,17.438,17.438,0,0,1-6.407,4.977,21.878,21.878,0,0,1-18.575-.545,16.794,16.794,0,0,1-6.783-6.784A21.052,21.052,0,0,1,209.3,53.69a21.237,21.237,0,0,1,2.42-10.4,16.586,16.586,0,0,1,6.782-6.75,22.376,22.376,0,0,1,19.905-.034,16.378,16.378,0,0,1,6.646,6.511,19.386,19.386,0,0,1,2.352,9.648,16.1,16.1,0,0,1-.341,3.136h-26.38ZM233.6,45.27a7.4,7.4,0,0,0-5.146-1.875,7.632,7.632,0,0,0-5.317,1.909,7.99,7.99,0,0,0-2.386,5.591h14.86Q235.683,47.146,233.6,45.27ZM189.093,69.406q-3.717-3.306-3.715-10.943V44.486h-5.113V34.668h5.113V25.327h11.656v9.341h7.635v9.818h-7.635V58.668a4.275,4.275,0,0,0,.92,3.136,4.4,4.4,0,0,0,3.1.886h3.681V72.713h-5.249Q192.807,72.713,189.093,69.406ZM169.36,30.031a7.2,7.2,0,0,1-5.044-1.739,5.614,5.614,0,0,1-1.909-4.33,5.69,5.69,0,0,1,1.909-4.4,8.186,8.186,0,0,1,10.088,0,5.693,5.693,0,0,1,1.909,4.4,5.617,5.617,0,0,1-1.909,4.33A7.2,7.2,0,0,1,169.36,30.031Zm-12,29.523q0,6.205-4.124,9.682t-11.827,3.477H118.985v-48.2h21.882q7.361,0,11.383,3.2t4.022,9.136a11.257,11.257,0,0,1-2.318,7.261,10.676,10.676,0,0,1-6.066,3.784,12.072,12.072,0,0,1,6.918,4.227A11.572,11.572,0,0,1,157.363,59.554Zm-19.223-25.7h-7.5V44.213h7.634q6.066,0,6.067-5.182T138.14,33.849Zm5.59,20.011a7.209,7.209,0,0,0-4.84-1.466h-8.248V63.236h8.316q6.476,0,6.476-5.318A5.071,5.071,0,0,0,143.73,53.861Zm31.424,18.852H163.5V34.668h11.656V72.713Z"></path><g id="icon"><path id="tiffin" class="cls-2" d="M24.9,59.631c-1.928-.291-3.223-2.907-1.762-4.509,2.741-3,1.862-6.483,1.964-9.811,0.13-4.269-.022-4.3,4.149-4.3,15.569-.009,31.139.047,46.708-0.04,2.479-.014,3.325.825,3.167,3.24-0.144,2.2.085,4.421,0.046,6.631-0.022,1.286.05,2.365,1.213,3.279,1.369,1.076,1.258,2.664.728,4.148s-1.908,1.408-3.139,1.408q-24.547.015-49.094,0C27.558,59.669,26.232,59.647,24.9,59.631Z"></path><path id="bg" class="cls-1" d="M56.162,0.29C61.407,1.346,65.368,5.3,66.711,11.733c0.4,1.928,1.135,2.622,3.121,2.667a9.675,9.675,0,0,1,9.531,9.448c0.078,1.676.083,3.355,0.1,5.033,0.019,1.506-.021,2.89,1.59,3.9,1.3,0.812,1.01,2.35.546,3.641-0.513,1.428-1.746,1.547-3.052,1.545Q60.8,37.928,43.056,37.93c-5.3,0-10.6.069-15.893,0.094-1.419.007-2.99,0.111-3.719-1.42a3.6,3.6,0,0,1,.925-4.364,4.425,4.425,0,0,0,1.224-3.622,27.852,27.852,0,0,1,.252-6.079C26.8,18,30.275,14.65,34.819,14.507c2.534-.079,3.468-0.951,3.933-3.426C40.177,3.488,47.352-1.283,56.162.29ZM45.579,14.467q6.086,0.017,12.173.031c0.617,0,1.235-.034,1.852-0.061,0.889-.038,1.5-0.271,1.463-1.395C60.95,9.2,56.974,5.788,52.374,5.648c-3.826-.117-8.026,3.343-8.344,6.824A1.554,1.554,0,0,0,45.579,14.467ZM79.32,76.948c-1.012,5.431-4.551,8.921-9.217,8.97q-17.882.192-35.768-.084a9.021,9.021,0,0,1-8.671-8.784c-0.216-3.7-.023-7.423-0.2-11.128-0.111-2.385.962-3.1,3.145-3.077,6.887,0.073,13.776.076,20.664,0.076,9.009,0,18.019.042,27.026-.1,2.48-.038,3.3.867,3.206,3.231C79.353,69.935,79.366,73.823,79.32,76.948ZM4.7,41.905C6.17,33.326,7.616,24.743,9.129,16.171A10.839,10.839,0,0,1,22.952,7.454c1.706,0.489,2.873.945,0.992,3a13.682,13.682,0,0,0-3.856,11.41,7.964,7.964,0,0,1-1.368,6.05c-1.938,2.643-2.027,5.347.079,7.987a4.657,4.657,0,0,1,1.233,3.192c-0.45,4.426,1.109,9.01-1.547,13.3a5.712,5.712,0,0,0,.424,7.061c1.566,1.778,1.36,4.059,1.4,6.087,0.1,4.911-.037,9.817.78,14.691,0.292,1.743-.905,2.349-2.293,2.144-4.1-.606-8.286-0.848-12.163-2.5A10.231,10.231,0,0,1,.192,68.216C1.642,59.437,3.192,50.675,4.7,41.905ZM69.116,89.8c2.066-.408,4.139-0.786,6.2-1.229,4.9-1.055,10.029-7.346,9.32-14.629a42.951,42.951,0,0,1,.053-11.852,7.731,7.731,0,0,1,1.132-3.251c1.711-2.419,1.257-4.751.087-7.351-2.446-5.436-3.079-11.051-.4-16.674,1.279-2.688,1.721-5.347-.288-7.9-1.67-2.122-1.149-4.589-1.054-6.955a1.666,1.666,0,0,1,1.8-1.583c4.484,0.482,9.075.664,12.752,3.872a9.24,9.24,0,0,1,3.118,8.891c-2.955,17.748-6.037,35.475-9.105,53.2-0.69,3.988-4.3,8.559-9.479,8.653A31.992,31.992,0,0,1,69.116,89.8Z"></path></g></svg> 